<svg width="122" height="115" viewBox="0 0 122 115" fill="none" xmlns="http://www.w3.org/2000/svg">
<path d="M110.57 29.6573H95.7084C92.506 29.6573 90.9021 29.6573 89.3942 29.199C87.8862 28.7408 86.5488 27.8562 83.8846 26.0765C79.8882 23.4121 75.327 20.3748 73.0624 19.6821C70.7978 19 68.3947 19 63.5884 19C57.0557 19 52.8462 19 49.9048 20.2149C46.9742 21.4352 44.6616 23.7425 40.0365 28.3678L35.9709 32.4282C34.9318 33.4726 34.4096 33.9948 34.0899 34.5064C33.5078 35.4367 33.2272 36.5241 33.2863 37.62C33.3454 38.7158 33.7415 39.7667 34.4203 40.629C34.7933 41.1033 35.3688 41.5669 36.5144 42.4887C40.7558 45.8991 46.8676 45.558 50.7094 41.6947L57.2848 35.0819H62.6133L94.5841 67.2456C95.9947 68.6721 96.7859 70.5974 96.7859 72.6036C96.7859 74.6098 95.9947 76.5351 94.5841 77.9616C93.8859 78.664 93.0557 79.2215 92.1412 79.6019C91.2267 79.9823 90.2461 80.1781 89.2557 80.1781C88.2652 80.1781 87.2846 79.9823 86.3701 79.6019C85.4556 79.2215 84.6254 78.664 83.9272 77.9616L81.2629 75.2866M81.2629 75.2866L65.2775 59.2047M81.2629 75.2866C82.6735 76.7131 83.4647 78.6383 83.4647 80.6446C83.4647 82.6508 82.6735 84.576 81.2629 86.0025C80.5647 86.705 79.7345 87.2624 78.82 87.6428C77.9055 88.0232 76.9249 88.2191 75.9345 88.2191C74.944 88.2191 73.9634 88.0232 73.0489 87.6428C72.1344 87.2624 71.3042 86.705 70.606 86.0025L65.2775 80.6419M65.2775 80.6419C66.6897 82.0686 67.4819 83.995 67.4819 86.0025C67.4819 88.01 66.6897 89.9364 65.2775 91.3631C64.5793 92.0656 63.749 92.6231 62.8346 93.0035C61.9201 93.3839 60.9394 93.5797 59.949 93.5797C58.9586 93.5797 57.9779 93.3839 57.0635 93.0035C56.149 92.6231 55.3188 92.0656 54.6205 91.3631L46.6278 83.3222M65.2775 80.6419L54.6205 69.9846M46.6278 83.3222L43.9636 80.6419M46.6278 83.3222C48.04 84.7489 48.8322 86.6753 48.8322 88.6828C48.8322 90.6903 48.04 92.6167 46.6278 94.0435C45.9296 94.7459 45.0994 95.3034 44.1849 95.6838C43.2704 96.0642 42.2898 96.26 41.2993 96.26C40.3089 96.26 39.3283 96.0642 38.4138 95.6838C37.4993 95.3034 36.6691 94.7459 35.9709 94.0435L20.9232 78.6863C17.8327 75.5317 16.2875 73.9491 14.3053 73.1178C12.3284 72.2866 10.1171 72.2866 5.69978 72.2866H4" stroke="#ffffff" stroke-width="6.5" stroke-linecap="round" stroke-linejoin="round"/>
<path d="M118.67 77.0512H104.762M43.5638 23.0166H7.40137" stroke="#ffffff" stroke-width="6.5" stroke-linecap="round"/>
</svg>
