<svg width="115" height="115" viewBox="0 0 115 115" fill="none" xmlns="http://www.w3.org/2000/svg">
<path d="M62 26.2165C65.1438 26.2158 68.1892 27.1992 70.611 28.9971C73.0328 30.7949 74.6792 33.2945 75.266 36.0646C84.0938 38.5116 91.8679 43.3366 97.532 49.8841C101.808 54.8229 104.746 60.5852 106.115 66.7165C107.483 72.8478 107.245 79.1805 105.418 85.215C103.591 91.2495 100.226 96.8208 95.5879 101.489C90.9499 106.158 85.166 109.796 78.6922 112.117C72.2185 114.438 65.2321 115.378 58.2841 114.863C51.336 114.348 44.6165 112.392 38.6553 109.15C32.6942 105.907 27.6545 101.467 23.934 96.1785C20.2134 90.8904 17.9136 84.8992 17.216 78.6776C16.973 76.4577 19.016 74.6496 21.5 74.6496C23.984 74.6496 25.973 76.4658 26.27 78.6776C27.0732 84.386 29.5625 89.7982 33.4803 94.3542C37.3981 98.9102 42.6021 102.444 48.5538 104.591C54.5055 106.738 60.9887 107.42 67.3326 106.565C73.6765 105.711 79.6506 103.352 84.6367 99.7317C89.6229 96.1116 93.4401 91.3624 95.6932 85.9753C97.9463 80.5881 98.5535 74.7589 97.452 69.0907C96.3506 63.4225 93.5804 58.1212 89.4282 53.7353C85.276 49.3495 79.8926 46.0385 73.835 44.1448C72.6898 46.0187 71.012 47.5874 68.9721 48.6916C66.9322 49.7957 64.6029 50.396 62.2206 50.4314C59.8384 50.4668 57.4881 49.9361 55.4085 48.8933C53.3289 47.8504 51.5941 46.3324 50.3802 44.4936C49.1664 42.6548 48.5167 40.5606 48.4973 38.4237C48.4778 36.2868 49.0892 34.1834 50.2694 32.327C51.4496 30.4707 53.1565 28.9275 55.2168 27.8543C57.2771 26.7811 59.6174 26.216 62 26.2165ZM98 38.3248V38.5427C100.461 40.5195 102.714 42.6947 104.732 45.0408C106.211 43.052 107 40.7152 107 38.3248V34.2887C107 18.3784 90.26 2 62 2C33.74 2 17 18.3784 17 34.2887V38.3248C17 41.5361 18.4223 44.6159 20.9541 46.8866C23.4858 49.1574 26.9196 50.4331 30.5 50.4331H44C42.029 48.0921 40.625 45.3476 39.95 42.3609H30.5C29.3065 42.3609 28.1619 41.9357 27.318 41.1787C26.4741 40.4218 26 39.3952 26 38.3248V34.2887C26 22.6809 38.888 10.0722 62 10.0722C85.112 10.0722 98 22.6809 98 34.2887V38.3248ZM62 58.5052C67.1497 58.5054 72.1436 56.9212 76.148 54.0171C80.0829 56.1793 83.3317 59.2127 85.5824 62.8259C87.833 66.4391 89.0099 70.5107 89 74.6496C88.9987 78.8715 87.7667 83.0198 85.4264 86.6829C83.086 90.346 79.7186 93.3967 75.6581 95.5324C71.5976 97.6681 66.9851 98.8145 62.2782 98.858C57.5712 98.9015 52.9334 97.8405 48.8247 95.7803C44.716 93.7201 41.2792 90.7323 38.8552 87.1132C36.4312 83.4941 35.1042 79.3695 35.0059 75.1485C34.9076 70.9275 36.0414 66.7568 38.2947 63.0501C40.5481 59.3433 43.8428 56.2294 47.852 54.0171C51.8564 56.9212 56.8503 58.5054 62 58.5052ZM80 74.6496C80 70.3678 78.1036 66.2615 74.7279 63.2338C71.3523 60.2061 66.7739 58.5052 62 58.5052C57.2261 58.5052 52.6477 60.2061 49.2721 63.2338C45.8964 66.2615 44 70.3678 44 74.6496C44 78.9313 45.8964 83.0377 49.2721 86.0654C52.6477 89.093 57.2261 90.7939 62 90.7939C66.7739 90.7939 71.3523 89.093 74.7279 86.0654C78.1036 83.0377 80 78.9313 80 74.6496Z" fill="#032C4C"/>
</svg>
