<svg width="115" height="115" viewBox="0 0 115 115" fill="none" xmlns="http://www.w3.org/2000/svg">
<path d="M75.5205 67.5617C76.0143 69.6188 76.2628 71.7502 76.2659 73.9556C76.2659 81.3285 73.3209 88.3995 68.0787 93.613C62.8365 98.8264 55.7266 101.755 48.3131 101.755V79.5155M75.5205 67.5617C84.4183 61.1158 91.6566 52.668 96.6442 42.9083C101.632 33.1487 104.227 22.3541 104.219 11.4063C93.2114 11.3984 82.3582 13.98 72.5457 18.9403C62.7332 23.9006 54.2396 31.0989 47.7587 39.9473M75.5205 67.5617C67.425 73.4552 58.1458 77.5334 48.3131 79.5155M48.3131 79.5155C47.8317 79.6144 47.3487 79.7071 46.8642 79.7935C42.6352 76.4632 38.8081 72.6571 35.4595 68.4513L35.7343 67.0057M47.7587 39.9473C43.6536 38.9817 39.3821 38.9526 35.2641 39.8622C31.1461 40.7718 27.2886 42.5966 23.9805 45.1996C20.6724 47.8027 17.9996 51.1166 16.1625 54.8931C14.3253 58.6695 13.3713 62.8105 13.3721 67.0057H35.7343M47.7587 39.9473C41.8333 47.9971 37.728 57.2284 35.7343 67.0057M25.3033 78.0792C22.2374 80.3446 19.8538 83.4016 18.4108 86.9186C16.9679 90.4356 16.5207 94.2783 17.1177 98.0301C18.1768 98.1969 19.2577 98.2803 20.3603 98.2803C23.6275 98.2811 26.8497 97.5224 29.7698 96.0647C32.6898 94.607 35.2269 92.4908 37.1785 89.8848M79.76 42.6809C79.76 44.5242 79.0237 46.2919 77.7132 47.5953C76.4027 48.8986 74.6252 49.6309 72.7718 49.6309C70.9184 49.6309 69.1409 48.8986 67.8304 47.5953C66.5198 46.2919 65.7836 44.5242 65.7836 42.6809C65.7836 40.8377 66.5198 39.07 67.8304 37.7666C69.1409 36.4632 70.9184 35.731 72.7718 35.731C74.6252 35.731 76.4027 36.4632 77.7132 37.7666C79.0237 39.07 79.76 40.8377 79.76 42.6809Z" stroke="#ffffff" stroke-width="6.5" stroke-linecap="round" stroke-linejoin="round"/>
</svg>
