<svg width="115" height="115" viewBox="0 0 115 115" fill="none" xmlns="http://www.w3.org/2000/svg">
<mask id="path-1-inside-1_793_10782" fill="white">
<path fill-rule="evenodd" clip-rule="evenodd" d="M55.5752 6.41504C56.4927 6.41504 57.3726 6.77951 58.0214 7.42828C58.6702 8.07705 59.0346 8.95696 59.0346 9.87446V38.4262L66.9683 30.4926C67.285 30.1527 67.6669 29.8801 68.0912 29.691C68.5156 29.5019 68.9737 29.4003 69.4382 29.3921C69.9027 29.3839 70.3641 29.4693 70.7948 29.6433C71.2256 29.8173 71.6169 30.0763 71.9454 30.4048C72.2739 30.7333 72.5329 31.1246 72.7068 31.5553C72.8808 31.9861 72.9663 32.4475 72.9581 32.912C72.9499 33.3765 72.8482 33.8346 72.6591 34.2589C72.4701 34.6833 72.1974 35.0652 71.8576 35.3819L58.0199 49.2196C57.3712 49.8674 56.492 50.2313 55.5752 50.2313C54.6585 50.2313 53.7792 49.8674 53.1306 49.2196L39.2929 35.3819C38.6818 34.7261 38.3492 33.8587 38.365 32.9625C38.3808 32.0663 38.7438 31.2112 39.3777 30.5774C40.0115 29.9435 40.8666 29.5805 41.7628 29.5647C42.659 29.5488 43.5264 29.8815 44.1822 30.4926L52.1158 38.4262V9.87446C52.1158 8.95696 52.4803 8.07705 53.1291 7.42828C53.7778 6.77951 54.6577 6.41504 55.5752 6.41504ZM75.1971 10.1235C75.2415 9.67133 75.3746 9.23232 75.5888 8.83157C75.8029 8.43081 76.0939 8.07618 76.4452 7.78791C76.7964 7.49964 77.201 7.28339 77.6358 7.15151C78.0706 7.01962 78.5272 6.9747 78.9793 7.01928C86.7746 7.78497 92.7894 9.57925 97.3927 14.1826C101.521 18.3108 103.389 23.5691 104.284 30.2343C105.16 36.7426 105.16 45.0867 105.16 55.7371V60.7464C105.142 69.2934 105.036 76.1984 104.284 81.7658C103.389 88.4309 101.516 93.6892 97.3927 97.8175C93.2644 101.946 88.0061 103.814 81.341 104.709C74.8327 105.585 66.4885 105.585 55.8382 105.585H55.3123C44.6619 105.585 36.3178 105.585 29.8049 104.709C23.1443 103.814 17.886 101.941 13.7578 97.8175C9.62954 93.6892 7.76146 88.4309 6.86662 81.7658C6.11477 76.1984 6.00868 69.2934 5.99023 60.751V55.7371C5.99023 45.0867 5.99023 36.7426 6.86662 30.2297C7.76146 23.5691 9.63416 18.3108 13.7578 14.1826C18.3611 9.57925 24.3759 7.78497 32.1757 7.01928C32.6359 6.95833 33.1037 6.99063 33.5512 7.11426C33.9987 7.23789 34.4167 7.45031 34.7803 7.73888C35.144 8.02745 35.4458 8.38626 35.6679 8.79394C35.8899 9.20161 36.0277 9.64982 36.0729 10.1118C36.1181 10.5739 36.0699 11.0403 35.931 11.4833C35.7922 11.9263 35.5657 12.3368 35.2648 12.6904C34.964 13.044 34.5951 13.3334 34.1801 13.5414C33.7651 13.7494 33.3125 13.8718 32.8492 13.9012C25.6582 14.6116 21.5807 16.1475 18.6517 19.0765C16.0225 21.7057 14.5142 25.2573 13.7209 31.1568C12.9183 37.1531 12.9091 45.0314 12.9091 56V57.1532H24.648C28.2089 57.1532 31.0318 57.144 33.5687 58.3155C36.1056 59.4825 37.9414 61.6274 40.2569 64.3349L40.6628 64.8054L43.4534 68.0619C46.3778 71.4752 47.1988 72.3147 48.1859 72.7667C49.1684 73.2233 50.3446 73.2971 54.8372 73.2971H56.3132C60.8059 73.2971 61.9821 73.2233 62.9646 72.7713C63.9516 72.3147 64.7727 71.4706 67.697 68.0665L70.4876 64.8054L70.8935 64.3349C73.209 61.6274 75.0448 59.4825 77.5817 58.3155C80.1186 57.144 82.9415 57.1486 86.507 57.1532H98.2414V56C98.2414 45.0314 98.2322 37.1531 97.4296 31.1568C96.6362 25.2573 95.1233 21.7011 92.4988 19.0719C89.5744 16.1475 85.4923 14.6116 78.3013 13.9058C77.8491 13.8614 77.4101 13.7283 77.0093 13.5141C76.6086 13.3 76.2539 13.009 75.9657 12.6577C75.6774 12.3065 75.4612 11.9019 75.3293 11.4671C75.1974 11.0323 75.1525 10.5757 75.1971 10.1235ZM98.2276 64.072H87.1251C82.6325 64.072 81.4563 64.1458 80.4738 64.5978C79.4867 65.0545 78.6657 65.8986 75.7413 69.3027L72.9507 72.5637L72.5448 73.0342C70.2293 75.7418 68.3935 77.8866 65.8566 79.0536C63.3197 80.2206 60.4968 80.2206 56.9359 80.216H54.2191C50.6536 80.216 47.8307 80.2252 45.2938 79.0536C42.7569 77.8866 40.9211 75.7418 38.6056 73.0342L38.1997 72.5637L35.4091 69.3073C32.4848 65.894 31.6637 65.0545 30.6766 64.6025C29.6942 64.1458 28.518 64.072 24.0253 64.072H12.9229C12.969 71.0047 13.1305 76.4337 13.7209 80.8479C14.5142 86.7427 16.0272 90.299 18.6517 92.9236C21.2809 95.5527 24.8325 97.061 30.732 97.8544C36.7283 98.657 44.6066 98.6662 55.5752 98.6662C66.5439 98.6662 74.4221 98.657 80.4185 97.8544C86.3179 97.061 89.8742 95.5481 92.5034 92.9236C95.1279 90.2944 96.6362 86.7427 97.4296 80.8479C98.02 76.4337 98.186 71.0047 98.2276 64.072Z"/>
</mask>
<path fill-rule="evenodd" clip-rule="evenodd" d="M55.5752 6.41504C56.4927 6.41504 57.3726 6.77951 58.0214 7.42828C58.6702 8.07705 59.0346 8.95696 59.0346 9.87446V38.4262L66.9683 30.4926C67.285 30.1527 67.6669 29.8801 68.0912 29.691C68.5156 29.5019 68.9737 29.4003 69.4382 29.3921C69.9027 29.3839 70.3641 29.4693 70.7948 29.6433C71.2256 29.8173 71.6169 30.0763 71.9454 30.4048C72.2739 30.7333 72.5329 31.1246 72.7068 31.5553C72.8808 31.9861 72.9663 32.4475 72.9581 32.912C72.9499 33.3765 72.8482 33.8346 72.6591 34.2589C72.4701 34.6833 72.1974 35.0652 71.8576 35.3819L58.0199 49.2196C57.3712 49.8674 56.492 50.2313 55.5752 50.2313C54.6585 50.2313 53.7792 49.8674 53.1306 49.2196L39.2929 35.3819C38.6818 34.7261 38.3492 33.8587 38.365 32.9625C38.3808 32.0663 38.7438 31.2112 39.3777 30.5774C40.0115 29.9435 40.8666 29.5805 41.7628 29.5647C42.659 29.5488 43.5264 29.8815 44.1822 30.4926L52.1158 38.4262V9.87446C52.1158 8.95696 52.4803 8.07705 53.1291 7.42828C53.7778 6.77951 54.6577 6.41504 55.5752 6.41504ZM75.1971 10.1235C75.2415 9.67133 75.3746 9.23232 75.5888 8.83157C75.8029 8.43081 76.0939 8.07618 76.4452 7.78791C76.7964 7.49964 77.201 7.28339 77.6358 7.15151C78.0706 7.01962 78.5272 6.9747 78.9793 7.01928C86.7746 7.78497 92.7894 9.57925 97.3927 14.1826C101.521 18.3108 103.389 23.5691 104.284 30.2343C105.16 36.7426 105.16 45.0867 105.16 55.7371V60.7464C105.142 69.2934 105.036 76.1984 104.284 81.7658C103.389 88.4309 101.516 93.6892 97.3927 97.8175C93.2644 101.946 88.0061 103.814 81.341 104.709C74.8327 105.585 66.4885 105.585 55.8382 105.585H55.3123C44.6619 105.585 36.3178 105.585 29.8049 104.709C23.1443 103.814 17.886 101.941 13.7578 97.8175C9.62954 93.6892 7.76146 88.4309 6.86662 81.7658C6.11477 76.1984 6.00868 69.2934 5.99023 60.751V55.7371C5.99023 45.0867 5.99023 36.7426 6.86662 30.2297C7.76146 23.5691 9.63416 18.3108 13.7578 14.1826C18.3611 9.57925 24.3759 7.78497 32.1757 7.01928C32.6359 6.95833 33.1037 6.99063 33.5512 7.11426C33.9987 7.23789 34.4167 7.45031 34.7803 7.73888C35.144 8.02745 35.4458 8.38626 35.6679 8.79394C35.8899 9.20161 36.0277 9.64982 36.0729 10.1118C36.1181 10.5739 36.0699 11.0403 35.931 11.4833C35.7922 11.9263 35.5657 12.3368 35.2648 12.6904C34.964 13.044 34.5951 13.3334 34.1801 13.5414C33.7651 13.7494 33.3125 13.8718 32.8492 13.9012C25.6582 14.6116 21.5807 16.1475 18.6517 19.0765C16.0225 21.7057 14.5142 25.2573 13.7209 31.1568C12.9183 37.1531 12.9091 45.0314 12.9091 56V57.1532H24.648C28.2089 57.1532 31.0318 57.144 33.5687 58.3155C36.1056 59.4825 37.9414 61.6274 40.2569 64.3349L40.6628 64.8054L43.4534 68.0619C46.3778 71.4752 47.1988 72.3147 48.1859 72.7667C49.1684 73.2233 50.3446 73.2971 54.8372 73.2971H56.3132C60.8059 73.2971 61.9821 73.2233 62.9646 72.7713C63.9516 72.3147 64.7727 71.4706 67.697 68.0665L70.4876 64.8054L70.8935 64.3349C73.209 61.6274 75.0448 59.4825 77.5817 58.3155C80.1186 57.144 82.9415 57.1486 86.507 57.1532H98.2414V56C98.2414 45.0314 98.2322 37.1531 97.4296 31.1568C96.6362 25.2573 95.1233 21.7011 92.4988 19.0719C89.5744 16.1475 85.4923 14.6116 78.3013 13.9058C77.8491 13.8614 77.4101 13.7283 77.0093 13.5141C76.6086 13.3 76.2539 13.009 75.9657 12.6577C75.6774 12.3065 75.4612 11.9019 75.3293 11.4671C75.1974 11.0323 75.1525 10.5757 75.1971 10.1235ZM98.2276 64.072H87.1251C82.6325 64.072 81.4563 64.1458 80.4738 64.5978C79.4867 65.0545 78.6657 65.8986 75.7413 69.3027L72.9507 72.5637L72.5448 73.0342C70.2293 75.7418 68.3935 77.8866 65.8566 79.0536C63.3197 80.2206 60.4968 80.2206 56.9359 80.216H54.2191C50.6536 80.216 47.8307 80.2252 45.2938 79.0536C42.7569 77.8866 40.9211 75.7418 38.6056 73.0342L38.1997 72.5637L35.4091 69.3073C32.4848 65.894 31.6637 65.0545 30.6766 64.6025C29.6942 64.1458 28.518 64.072 24.0253 64.072H12.9229C12.969 71.0047 13.1305 76.4337 13.7209 80.8479C14.5142 86.7427 16.0272 90.299 18.6517 92.9236C21.2809 95.5527 24.8325 97.061 30.732 97.8544C36.7283 98.657 44.6066 98.6662 55.5752 98.6662C66.5439 98.6662 74.4221 98.657 80.4185 97.8544C86.3179 97.061 89.8742 95.5481 92.5034 92.9236C95.1279 90.2944 96.6362 86.7427 97.4296 80.8479C98.02 76.4337 98.186 71.0047 98.2276 64.072Z" fill="#032C4C" stroke="black" stroke-width="2" mask="url(#path-1-inside-1_793_10782)"/>
</svg>
