<svg width="115" height="115" viewBox="0 0 115 115" fill="none" xmlns="http://www.w3.org/2000/svg">
<mask id="path-1-inside-1_793_10772" fill="white">
<path d="M62.8487 83.756L79.063 66.9347C79.8349 66.1631 80.4236 65.2635 80.8291 64.236C81.2346 63.212 81.4373 62.0813 81.4373 60.844C81.4373 58.572 80.6317 56.5916 79.0204 54.9027C77.4055 53.2138 75.4563 52.3693 73.1728 52.3693C71.4334 52.3693 69.719 52.8244 68.0294 53.7347C66.3399 54.6449 64.613 56.2556 62.8487 58.5667C60.9991 56.2164 59.2527 54.5969 57.6094 53.708C55.9661 52.8191 54.2712 52.3747 52.5247 52.3747C50.2412 52.3747 48.292 53.2191 46.6771 54.908C45.0658 56.5969 44.2602 58.5756 44.2602 60.844C44.2602 62.0813 44.4629 63.2138 44.8684 64.2413C45.2739 65.2653 45.8626 66.1631 46.6344 66.9347L62.8487 83.756ZM102.95 68.9827L69.0058 102.919C68.1344 103.779 67.1544 104.424 66.066 104.855C64.9776 105.285 63.8927 105.5 62.8114 105.5C61.7301 105.5 60.6541 105.285 59.5835 104.855C58.5128 104.424 57.5418 103.779 56.6703 102.919L12.0557 58.4067C11.2127 57.6351 10.576 56.7142 10.1456 55.644C9.7152 54.5773 9.5 53.4538 9.5 52.2733V18.2147C9.5 15.8182 10.3394 13.7667 12.0183 12.06C13.6972 10.3533 15.7638 9.5 18.2181 9.5H52.29C53.4424 9.5 54.5611 9.73289 55.6459 10.1987C56.7308 10.6644 57.6681 11.2938 58.4577 12.0867L102.95 56.588C103.839 57.4591 104.486 58.4387 104.892 59.5267C105.297 60.6147 105.5 61.7116 105.5 62.8173C105.5 63.9231 105.297 65.0076 104.892 66.0707C104.486 67.1338 103.839 68.1062 102.95 68.988M65.2017 99.1427L99.1402 65.212C99.8231 64.5293 100.165 63.7258 100.165 62.8013C100.165 61.8769 99.8231 61.0733 99.1402 60.3907L53.5971 14.94H18.2181C17.2577 14.94 16.4538 15.2476 15.8065 15.8627C15.1555 16.4778 14.8301 17.2636 14.8301 18.22V52.2467C14.8301 52.6591 14.8994 53.0698 15.0382 53.4787C15.1733 53.8911 15.4116 54.268 15.7531 54.6093L60.3784 99.1427C61.0614 99.8253 61.8635 100.167 62.7847 100.167C63.7095 100.167 64.5152 99.8253 65.2017 99.1427ZM28.4354 33.8093C29.9328 33.8093 31.2027 33.2902 32.2448 32.252C33.287 31.2138 33.8099 29.9551 33.8135 28.476C33.8135 26.9649 33.2941 25.6813 32.2555 24.6253C31.2169 23.5693 29.9577 23.0396 28.478 23.036C26.9663 23.036 25.6823 23.5604 24.6259 24.6093C23.5695 25.6582 23.0413 26.9329 23.0413 28.4333C23.0413 29.9338 23.5659 31.2031 24.6152 32.2413C25.6645 33.2796 26.9379 33.8022 28.4354 33.8093Z"/>
</mask>
<path d="M62.8487 83.756L79.063 66.9347C79.8349 66.1631 80.4236 65.2635 80.8291 64.236C81.2346 63.212 81.4373 62.0813 81.4373 60.844C81.4373 58.572 80.6317 56.5916 79.0204 54.9027C77.4055 53.2138 75.4563 52.3693 73.1728 52.3693C71.4334 52.3693 69.719 52.8244 68.0294 53.7347C66.3399 54.6449 64.613 56.2556 62.8487 58.5667C60.9991 56.2164 59.2527 54.5969 57.6094 53.708C55.9661 52.8191 54.2712 52.3747 52.5247 52.3747C50.2412 52.3747 48.292 53.2191 46.6771 54.908C45.0658 56.5969 44.2602 58.5756 44.2602 60.844C44.2602 62.0813 44.4629 63.2138 44.8684 64.2413C45.2739 65.2653 45.8626 66.1631 46.6344 66.9347L62.8487 83.756ZM102.95 68.9827L69.0058 102.919C68.1344 103.779 67.1544 104.424 66.066 104.855C64.9776 105.285 63.8927 105.5 62.8114 105.5C61.7301 105.5 60.6541 105.285 59.5835 104.855C58.5128 104.424 57.5418 103.779 56.6703 102.919L12.0557 58.4067C11.2127 57.6351 10.576 56.7142 10.1456 55.644C9.7152 54.5773 9.5 53.4538 9.5 52.2733V18.2147C9.5 15.8182 10.3394 13.7667 12.0183 12.06C13.6972 10.3533 15.7638 9.5 18.2181 9.5H52.29C53.4424 9.5 54.5611 9.73289 55.6459 10.1987C56.7308 10.6644 57.6681 11.2938 58.4577 12.0867L102.95 56.588C103.839 57.4591 104.486 58.4387 104.892 59.5267C105.297 60.6147 105.5 61.7116 105.5 62.8173C105.5 63.9231 105.297 65.0076 104.892 66.0707C104.486 67.1338 103.839 68.1062 102.95 68.988M65.2017 99.1427L99.1402 65.212C99.8231 64.5293 100.165 63.7258 100.165 62.8013C100.165 61.8769 99.8231 61.0733 99.1402 60.3907L53.5971 14.94H18.2181C17.2577 14.94 16.4538 15.2476 15.8065 15.8627C15.1555 16.4778 14.8301 17.2636 14.8301 18.22V52.2467C14.8301 52.6591 14.8994 53.0698 15.0382 53.4787C15.1733 53.8911 15.4116 54.268 15.7531 54.6093L60.3784 99.1427C61.0614 99.8253 61.8635 100.167 62.7847 100.167C63.7095 100.167 64.5152 99.8253 65.2017 99.1427ZM28.4354 33.8093C29.9328 33.8093 31.2027 33.2902 32.2448 32.252C33.287 31.2138 33.8099 29.9551 33.8135 28.476C33.8135 26.9649 33.2941 25.6813 32.2555 24.6253C31.2169 23.5693 29.9577 23.0396 28.478 23.036C26.9663 23.036 25.6823 23.5604 24.6259 24.6093C23.5695 25.6582 23.0413 26.9329 23.0413 28.4333C23.0413 29.9338 23.5659 31.2031 24.6152 32.2413C25.6645 33.2796 26.9379 33.8022 28.4354 33.8093Z" fill="#012A4A"/>
<path d="M62.8487 83.756L57.4489 88.961L62.8487 94.563L68.2486 88.961L62.8487 83.756ZM79.063 66.9347L73.7608 61.6303L73.7115 61.6796L73.6632 61.7297L79.063 66.9347ZM80.8291 64.236L73.8559 61.4747L73.8526 61.483L80.8291 64.236ZM79.0204 54.9027L84.4469 49.7255L84.4412 49.7195L79.0204 54.9027ZM62.8487 58.5667L56.955 63.205L62.9391 70.8087L68.8103 63.1175L62.8487 58.5667ZM46.6771 54.908L41.2563 49.7248L41.2506 49.7308L46.6771 54.908ZM44.8684 64.2413L37.892 66.9944L37.8952 67.0026L44.8684 64.2413ZM46.6344 66.9347L52.0343 61.7297L51.986 61.6796L51.9367 61.6303L46.6344 66.9347ZM69.0058 102.919L74.2753 108.256L74.2919 108.239L74.3085 108.223L69.0058 102.919ZM56.6703 102.919L51.3732 108.228L51.387 108.242L51.4008 108.256L56.6703 102.919ZM12.0557 58.4067L17.3528 53.0973L17.2385 52.9832L17.1194 52.8741L12.0557 58.4067ZM10.1456 55.644L17.104 52.8457L17.1008 52.8377L10.1456 55.644ZM18.2181 9.5V2V9.5ZM58.4577 12.0867L53.1435 17.3791L53.1487 17.3842L53.1539 17.3894L58.4577 12.0867ZM102.95 56.588L97.6458 61.8907L97.6734 61.9183L97.7013 61.9456L102.95 56.588ZM65.2017 99.1427L70.4901 104.461L70.4973 104.454L70.5043 104.447L65.2017 99.1427ZM99.1402 65.212L93.8379 59.9077L93.8375 59.9081L99.1402 65.212ZM99.1402 60.3907L104.442 55.0863L104.438 55.082L99.1402 60.3907ZM53.5971 14.94L58.8951 9.63132L56.6993 7.44H53.5971V14.94ZM15.8065 15.8627L20.9577 21.3138L20.9652 21.3067L20.9726 21.2997L15.8065 15.8627ZM15.0382 53.4787L22.1652 51.143L22.1531 51.106L22.1405 51.0691L15.0382 53.4787ZM15.7531 54.6093L10.4508 59.9137L10.4553 59.9181L15.7531 54.6093ZM60.3784 99.1427L65.6807 93.8383L65.6763 93.8339L60.3784 99.1427ZM28.4354 33.8093L28.3997 41.3092L28.4176 41.3093H28.4354V33.8093ZM33.8135 28.476L41.3134 28.494L41.3135 28.485V28.476H33.8135ZM28.478 23.036L28.4961 15.536L28.4871 15.536H28.478V23.036ZM62.8487 83.756L68.2486 88.961L84.4629 72.1396L79.063 66.9347L73.6632 61.7297L57.4489 78.551L62.8487 83.756ZM79.063 66.9347L84.3653 72.239C85.8732 70.7317 87.0274 68.9608 87.8055 66.989L80.8291 64.236L73.8526 61.483C73.8197 61.5663 73.7966 61.5945 73.7608 61.6303L79.063 66.9347ZM80.8291 64.236L87.8023 66.9973C88.5962 64.9923 88.9373 62.9105 88.9373 60.844H81.4373H73.9373C73.9373 61.2521 73.8729 61.4317 73.8559 61.4747L80.8291 64.236ZM81.4373 60.844H88.9373C88.9373 56.586 87.3486 52.767 84.4469 49.7255L79.0204 54.9027L73.5939 60.0798C73.8094 60.3057 73.8692 60.4396 73.8859 60.4808C73.9012 60.5183 73.9373 60.6154 73.9373 60.844H81.4373ZM79.0204 54.9027L84.4412 49.7195C81.4485 46.5897 77.5569 44.8693 73.1728 44.8693V52.3693V59.8693C73.2794 59.8693 73.3366 59.879 73.3554 59.8827C73.3728 59.8862 73.3729 59.8876 73.3659 59.8846C73.3592 59.8817 73.3699 59.885 73.4014 59.9074C73.4342 59.9307 73.5018 59.9836 73.5996 60.0858L79.0204 54.9027ZM73.1728 52.3693V44.8693C70.067 44.8693 67.1397 45.6948 64.4723 47.1319L68.0294 53.7347L71.5866 60.3374C72.2983 59.954 72.7998 59.8693 73.1728 59.8693V52.3693ZM68.0294 53.7347L64.4723 47.1319C61.4881 48.7396 58.9963 51.253 56.8872 54.0158L62.8487 58.5667L68.8103 63.1175C70.2297 61.2581 71.1917 60.5502 71.5866 60.3374L68.0294 53.7347ZM62.8487 58.5667L68.7425 53.9283C66.596 51.2009 64.1011 48.6926 61.1777 47.1112L57.6094 53.708L54.0411 60.3048C54.4042 60.5012 55.4023 61.232 56.955 63.205L62.8487 58.5667ZM57.6094 53.708L61.1777 47.1112C58.5171 45.6721 55.6037 44.8747 52.5247 44.8747V52.3747V59.8747C52.9387 59.8747 53.415 59.9661 54.0411 60.3048L57.6094 53.708ZM52.5247 52.3747V44.8747C48.1406 44.8747 44.249 46.595 41.2563 49.7248L46.6771 54.908L52.0979 60.0911C52.1957 59.9889 52.2633 59.9361 52.2961 59.9127C52.3276 59.8904 52.3383 59.887 52.3316 59.8899C52.3246 59.8929 52.3247 59.8915 52.3421 59.8881C52.3609 59.8843 52.4181 59.8747 52.5247 59.8747V52.3747ZM46.6771 54.908L41.2506 49.7308C38.3513 52.7698 36.7602 56.5862 36.7602 60.844H44.2602H51.7602C51.7602 60.6188 51.7958 60.5236 51.8107 60.487C51.8272 60.4464 51.8871 60.3121 52.1036 60.0852L46.6771 54.908ZM44.2602 60.844H36.7602C36.7602 62.911 37.1014 64.9911 37.892 66.9944L44.8684 64.2413L51.8449 61.4883C51.8244 61.4365 51.7602 61.2517 51.7602 60.844H44.2602ZM44.8684 64.2413L37.8952 67.0026C38.6745 68.9706 39.8286 70.736 41.3322 72.239L46.6344 66.9347L51.9367 61.6303C51.8965 61.5902 51.8733 61.5601 51.8416 61.48L44.8684 64.2413ZM46.6344 66.9347L41.2346 72.1396L57.4489 88.961L62.8487 83.756L68.2486 78.551L52.0343 61.7297L46.6344 66.9347ZM102.95 68.9827L97.647 63.6787L63.7031 97.6147L69.0058 102.919L74.3085 108.223L108.252 74.2866L102.95 68.9827ZM69.0058 102.919L63.7363 97.5818C63.5496 97.7662 63.4148 97.838 63.309 97.8798L66.066 104.855L68.823 111.83C70.894 111.011 72.7191 109.792 74.2753 108.256L69.0058 102.919ZM66.066 104.855L63.309 97.8798C63.0256 97.9918 62.8737 98 62.8114 98V105.5V113C64.9118 113 66.9295 112.578 68.823 111.83L66.066 104.855ZM62.8114 105.5V98C62.7511 98 62.6218 97.9927 62.3799 97.8955L59.5835 104.855L56.787 111.814C58.6864 112.577 60.709 113 62.8114 113V105.5ZM59.5835 104.855L62.3799 97.8955C62.289 97.859 62.1469 97.7862 61.9398 97.5818L56.6703 102.919L51.4008 108.256C52.9367 109.772 54.7367 110.99 56.787 111.814L59.5835 104.855ZM56.6703 102.919L61.9675 97.6093L17.3528 53.0973L12.0557 58.4067L6.75847 63.7161L51.3732 108.228L56.6703 102.919ZM12.0557 58.4067L17.1194 52.8741C17.1103 52.8658 17.1073 52.8623 17.1084 52.8635C17.1095 52.8648 17.1121 52.8679 17.115 52.8721C17.1179 52.8763 17.1187 52.8781 17.1176 52.8759C17.1164 52.8737 17.1115 52.8643 17.104 52.8457L10.1456 55.644L3.18718 58.4423C4.03242 60.5441 5.31266 62.4022 6.99197 63.9392L12.0557 58.4067ZM10.1456 55.644L17.1008 52.8377C17.0398 52.6865 17 52.5179 17 52.2733H9.5H2C2 54.3897 2.39063 56.4682 3.19041 58.4503L10.1456 55.644ZM9.5 52.2733H17V18.2147H9.5H2V52.2733H9.5ZM9.5 18.2147H17C17 17.9108 17.0491 17.7723 17.071 17.7189C17.0928 17.6656 17.1542 17.5339 17.365 17.3196L12.0183 12.06L6.67166 6.80041C3.61124 9.91149 2 13.8527 2 18.2147H9.5ZM12.0183 12.06L17.365 17.3196C17.5479 17.1336 17.6532 17.0874 17.6899 17.0723C17.7304 17.0555 17.8767 17 18.2181 17V9.5V2C13.8101 2 9.79979 3.6205 6.67166 6.80041L12.0183 12.06ZM18.2181 9.5V17H52.29V9.5V2H18.2181V9.5ZM52.29 9.5V17C52.3999 17 52.5136 17.0158 52.6871 17.0903L55.6459 10.1987L58.6048 3.307C56.6086 2.44993 54.485 2 52.29 2V9.5ZM55.6459 10.1987L52.6871 17.0903C52.9411 17.1994 53.0664 17.3016 53.1435 17.3791L58.4577 12.0867L63.7719 6.79426C62.2697 5.28592 60.5206 4.12951 58.6048 3.307L55.6459 10.1987ZM58.4577 12.0867L53.1539 17.3894L97.6458 61.8907L102.95 56.588L108.254 51.2853L63.7616 6.78392L58.4577 12.0867ZM102.95 56.588L97.7013 61.9456C97.7901 62.0326 97.8304 62.089 97.8451 62.1111C97.8587 62.1318 97.8621 62.1408 97.864 62.1459L104.892 59.5267L111.92 56.9075C111.102 54.7138 109.817 52.8159 108.198 51.2304L102.95 56.588ZM104.892 59.5267L97.864 62.1459C97.973 62.4384 98 62.65 98 62.8173H105.5H113C113 60.7731 112.622 58.791 111.92 56.9075L104.892 59.5267ZM105.5 62.8173H98C98 62.983 97.9737 63.1631 97.8842 63.3978L104.892 66.0707L111.899 68.7435C112.621 66.852 113 64.8632 113 62.8173H105.5ZM104.892 66.0707L97.8842 63.3978C97.8842 63.3979 97.8834 63.4 97.8806 63.4054C97.8778 63.4108 97.8714 63.4226 97.859 63.4412C97.835 63.4772 97.7796 63.5525 97.6688 63.6624L102.95 68.988L108.231 74.3136C109.801 72.7567 111.077 70.9001 111.899 68.7435L104.892 66.0707ZM65.2017 99.1427L70.5043 104.447L104.443 70.5159L99.1402 65.212L93.8375 59.9081L59.899 93.8387L65.2017 99.1427ZM99.1402 65.212L104.442 70.5163C106.463 68.4969 107.665 65.812 107.665 62.8013H100.165H92.6646C92.6646 62.3158 92.7595 61.7439 93.0059 61.1641C93.2495 60.5908 93.571 60.1745 93.8379 59.9077L99.1402 65.212ZM100.165 62.8013H107.665C107.665 59.7907 106.463 57.1058 104.442 55.0863L99.1402 60.3907L93.8379 65.695C93.5709 65.4281 93.2495 65.0118 93.0059 64.4385C92.7595 63.8588 92.6646 63.2868 92.6646 62.8013H100.165ZM99.1402 60.3907L104.438 55.082L58.8951 9.63132L53.5971 14.94L48.2992 20.2487L93.8423 65.6993L99.1402 60.3907ZM53.5971 14.94V7.44H18.2181V14.94V22.44H53.5971V14.94ZM18.2181 14.94V7.44C15.494 7.44 12.7929 8.38036 10.6403 10.4257L15.8065 15.8627L20.9726 21.2997C20.6065 21.6475 20.1317 21.9625 19.5749 22.1755C19.0278 22.3848 18.5483 22.44 18.2181 22.44V14.94ZM15.8065 15.8627L10.6552 10.4115C8.39486 12.5476 7.33007 15.3576 7.33007 18.22H14.8301H22.3301C22.3301 18.6043 22.2616 19.1597 22.0033 19.7833C21.7405 20.4178 21.3585 20.935 20.9577 21.3138L15.8065 15.8627ZM14.8301 18.22H7.33007V52.2467H14.8301H22.3301V18.22H14.8301ZM14.8301 52.2467H7.33007C7.33007 53.5165 7.5462 54.74 7.93576 55.8882L15.0382 53.4787L22.1405 51.0691C22.2527 51.3996 22.3301 51.8017 22.3301 52.2467H14.8301ZM15.0382 53.4787L7.91111 55.8143C8.45261 57.4667 9.37131 58.8346 10.4508 59.9137L15.7531 54.6093L21.0554 49.305C21.452 49.7014 21.894 50.3155 22.1652 51.143L15.0382 53.4787ZM15.7531 54.6093L10.4553 59.9181L55.0806 104.451L60.3784 99.1427L65.6763 93.8339L21.0509 49.3006L15.7531 54.6093ZM60.3784 99.1427L55.0762 104.447C57.0901 106.46 59.7707 107.667 62.7847 107.667V100.167V92.6667C63.275 92.6667 63.8492 92.7628 64.429 93.0096C65.0019 93.2533 65.4164 93.5741 65.6807 93.8383L60.3784 99.1427ZM62.7847 100.167V107.667C65.7924 107.667 68.4716 106.468 70.4901 104.461L65.2017 99.1427L59.9132 93.8246C60.1766 93.5626 60.5886 93.2456 61.1567 93.0049C61.7316 92.7613 62.3001 92.6667 62.7847 92.6667V100.167ZM28.4354 33.8093V41.3093C31.8771 41.3093 35.0621 40.0319 37.538 37.5654L32.2448 32.252L26.9517 26.9386C27.0818 26.809 27.3248 26.62 27.6728 26.4777C28.0181 26.3365 28.3005 26.3093 28.4354 26.3093V33.8093ZM32.2448 32.252L37.538 37.5654C39.9971 35.1156 41.3051 31.9487 41.3134 28.494L33.8135 28.476L26.3135 28.458C26.3139 28.3004 26.3464 28.0038 26.4925 27.6521C26.6389 27.2996 26.8294 27.0604 26.9517 26.9386L32.2448 32.252ZM33.8135 28.476H41.3135C41.3135 25.0418 40.0518 21.8564 37.6026 19.3662L32.2555 24.6253L26.9084 29.8845C26.7859 29.7599 26.6063 29.5263 26.4715 29.1929C26.3377 28.8624 26.3135 28.5961 26.3135 28.476H33.8135ZM32.2555 24.6253L37.6026 19.3662C35.16 16.8828 31.9825 15.5444 28.4961 15.536L28.478 23.036L28.46 30.536C28.2903 30.5356 27.983 30.5002 27.6236 30.349C27.2644 30.1979 27.0255 30.0035 26.9084 29.8845L32.2555 24.6253ZM28.478 23.036V15.536C25.0208 15.536 21.8271 16.8193 19.3416 19.2871L24.6259 24.6093L29.9102 29.9315C29.789 30.0519 29.5555 30.2343 29.217 30.3725C28.8809 30.5098 28.6067 30.536 28.478 30.536V23.036ZM24.6259 24.6093L19.3416 19.2871C16.8545 21.7565 15.5413 24.9523 15.5413 28.4333H23.0413H30.5413C30.5413 28.5816 30.511 28.8734 30.3661 29.2232C30.2207 29.5741 30.0309 29.8118 29.9102 29.9315L24.6259 24.6093ZM23.0413 28.4333H15.5413C15.5413 31.8996 16.8409 35.0998 19.3401 37.5727L24.6152 32.2413L29.8903 26.91C30.0229 27.0412 30.2184 27.2887 30.366 27.6458C30.5126 28.0004 30.5413 28.2919 30.5413 28.4333H23.0413ZM24.6152 32.2413L19.3401 37.5727C21.8073 40.0138 24.9711 41.293 28.3997 41.3092L28.4354 33.8093L28.471 26.3094C28.6017 26.31 28.8735 26.3376 29.2051 26.4737C29.5387 26.6106 29.7695 26.7905 29.8903 26.91L24.6152 32.2413Z" fill="#022B4B" mask="url(#path-1-inside-1_793_10772)"/>
</svg>
