<svg width="115" height="115" viewBox="0 0 115 115" fill="none" xmlns="http://www.w3.org/2000/svg">
<mask id="mask0_793_10754" style="mask-type:luminance" maskUnits="userSpaceOnUse" x="0" y="0" width="115" height="115">
<path d="M0 0H115V115H0V0Z" fill="white"/>
</mask>
<g mask="url(#mask0_793_10754)">
<path d="M62.292 9.58789C77.2132 9.63581 85.1243 10.1054 90.2178 15.1941C95.8336 20.8148 95.8336 29.8518 95.8336 47.9164V67.0831C95.8336 85.1525 95.8336 94.1896 90.2178 99.8006C84.602 105.412 75.5697 105.416 57.5003 105.416C39.4309 105.416 30.3939 105.416 24.7828 99.8006C19.1718 94.1848 19.167 85.1573 19.167 67.0831V52.7129" stroke="#ffffff" stroke-width="6.5" stroke-linecap="round"/>
<path d="M16.5316 28.75L13.877 31.1746C14.2138 31.5436 14.6238 31.8384 15.0808 32.04C15.5379 32.2417 16.032 32.3459 16.5316 32.3459C17.0312 32.3459 17.5253 32.2417 17.9823 32.04C18.4394 31.8384 18.8494 31.5436 19.1862 31.1746L16.5316 28.75ZM22.6841 27.3412C23.3271 26.6372 23.6642 25.7066 23.621 24.754C23.5779 23.8015 23.1581 22.9051 22.4541 22.2621C21.7501 21.619 20.8194 21.282 19.8669 21.3252C18.9143 21.3683 18.018 21.788 17.3749 22.4921L22.6841 27.3412ZM15.6883 22.4921C15.0452 21.788 14.1488 21.3683 13.1963 21.3252C12.2438 21.282 11.3131 21.619 10.6091 22.2621C9.90505 22.9051 9.48529 23.8015 9.44216 24.754C9.39903 25.7066 9.73605 26.6372 10.3791 27.3412L15.6883 22.4921ZM52.6608 21.0833L55.3153 18.6587C54.9786 18.2897 54.5686 17.995 54.1115 17.7933C53.6544 17.5916 53.1603 17.4874 52.6608 17.4874C52.1612 17.4874 51.6671 17.5916 51.21 17.7933C50.7529 17.995 50.3429 18.2897 50.0062 18.6587L52.6608 21.0833ZM46.5083 22.4921C45.8652 23.1961 45.5282 24.1268 45.5713 25.0793C45.6145 26.0318 46.0342 26.9282 46.7383 27.5712C47.4423 28.2143 48.3729 28.5513 49.3255 28.5082C50.278 28.465 51.1744 28.0453 51.8174 27.3412L46.5083 22.4921ZM53.5041 27.3412C53.8225 27.6899 54.2064 27.9723 54.634 28.1726C55.0616 28.3728 55.5244 28.4868 55.996 28.5082C56.4677 28.5295 56.9389 28.4578 57.3828 28.297C57.8267 28.1363 58.2346 27.8897 58.5833 27.5712C58.9319 27.2528 59.2143 26.8689 59.4146 26.4413C59.6148 26.0138 59.7288 25.5509 59.7502 25.0793C59.7715 24.6077 59.6998 24.1364 59.539 23.6925C59.3783 23.2486 59.1317 22.8407 58.8133 22.4921L53.5041 27.3412ZM25.377 35.9663C25.0611 35.6154 24.6792 35.3303 24.2531 35.1271C23.8271 34.9238 23.3651 34.8065 22.8937 34.7818C21.9416 34.732 21.0087 35.0624 20.3002 35.7003C19.5917 36.3383 19.1657 37.2315 19.1158 38.1836C19.066 39.1357 19.3963 40.0686 20.0343 40.7771L25.377 35.9663ZM44.3712 14.5187C44.9753 15.2368 45.8363 15.6902 46.7703 15.7818C47.7042 15.8734 48.6369 15.5961 49.3691 15.0091C50.1013 14.4221 50.5748 13.572 50.6885 12.6405C50.8022 11.709 50.5469 10.77 49.9774 10.0242L44.3712 14.5187ZM34.0212 2.15625C22.0708 2.15625 12.9378 12.6644 12.9378 24.9167H20.1253C20.1253 16.0042 26.642 9.34375 34.0212 9.34375V2.15625ZM12.9378 24.9167L12.9426 28.75H20.1301L20.1253 24.9167H12.9378ZM19.1862 31.1746L22.6841 27.3412L17.3749 22.4921L13.877 26.3254L19.1862 31.1746ZM19.1862 26.3254L15.6883 22.4921L10.3791 27.3412L13.877 31.1746L19.1862 26.3254ZM35.1712 47.6771C47.1216 47.6771 56.2545 37.169 56.2545 24.9167H49.067C49.067 33.8292 42.5503 40.4896 35.1712 40.4896V47.6771ZM56.2545 24.9167V21.0833H49.067V24.9167H56.2545ZM50.011 18.6587L46.5131 22.4921L51.8222 27.3412L55.3201 23.5079L50.011 18.6587ZM50.011 23.5079L53.5041 27.3412L58.8181 22.4921L55.3153 18.6587L50.011 23.5079ZM20.0295 40.7723C23.8149 44.9842 29.172 47.6771 35.1616 47.6771V40.4896C31.4001 40.4896 27.931 38.8125 25.3722 35.9663L20.0295 40.7723ZM49.9774 10.0242C46.1633 5.27083 40.466 2.15625 34.0212 2.15625V9.34375C38.0605 9.34375 41.7741 11.2796 44.3712 14.5187L49.9774 10.0242Z" fill="#022B4B"/>
<path d="M71.875 91.0415H43.125" stroke="#ffffff" stroke-width="6.5" stroke-linecap="round"/>
</g>
</svg>
