<svg width="115" height="115" viewBox="0 0 115 115" fill="none" xmlns="http://www.w3.org/2000/svg">
<path d="M18.4657 56.9004L17.48 56.9415C15.6265 57.0086 13.8552 57.7234 12.4744 58.9616C11.0936 60.1999 10.1907 61.8831 9.92286 63.7183C8.41504 74.506 8.41504 85.451 9.92286 96.2387C10.4404 100.025 13.6604 102.81 17.48 102.958C44.8582 104.009 70.1418 104.009 97.52 102.958C99.3703 102.905 101.143 102.203 102.528 100.974C103.912 99.7458 104.821 98.0694 105.094 96.2387C106.601 85.451 106.601 74.506 105.094 63.7183C104.82 61.7857 103.843 60.0218 102.35 58.764C100.858 57.5062 98.9536 56.8427 97.0025 56.9004" stroke="#022B4B" stroke-width="6.5" stroke-linecap="round" stroke-linejoin="round"/>
<path d="M35.4369 77.8222H79.5722M63.8008 18.9175C63.0034 18.3918 62.0451 18.1668 61.097 18.2827C60.149 18.3985 59.2731 18.8477 58.6258 19.55C50.0726 28.8018 42.1031 38.5765 34.7633 48.8175C34.2054 49.5938 33.9421 50.5432 34.0204 51.4959C34.0986 52.4486 34.5134 53.3423 35.1904 54.0172C41.9919 60.7364 48.9083 66.3714 56.8597 71.6779C58.5026 72.7786 60.6958 72.4993 62.0347 71.0536C70.5881 61.7992 78.5577 52.0217 85.8972 41.7779C86.4539 41.0032 86.7173 40.0561 86.6406 39.1053C86.5639 38.1544 86.152 37.2618 85.4783 36.5864C78.8435 30.0091 71.5833 24.086 63.8008 18.9175Z" stroke="#022B4B" stroke-width="6.5" stroke-linecap="round" stroke-linejoin="round"/>
</svg>
